{
  "accessors": [
    {
      "bufferView": 2,
      "componentType": 5126,
      "count": 2129,
      "max": [
        1.450648546218872,
        48.68511199951172,
        1.4506489038467407
      ],
      "min": [
        -1.4506484270095825,
        -0.9438206553459167,
        -1.450649380683899
      ],
      "type": "VEC3"
    },
    {
      "bufferView": 2,
      "byteOffset": 25548,
      "componentType": 5126,
      "count": 2129,
      "max": [
        1.0,
        1.0,
        1.0
      ],
      "min": [
        -0.9999962449073792,
        -1.0,
        -1.0
      ],
      "type": "VEC3"
    },
    {
      "bufferView": 1,
      "componentType": 5126,
      "count": 2129,
      "max": [
        0.65625,
        1.0
      ],
      "min": [
        0.3437499701976776,
        -7.450580596923828e-08
      ],
      "type": "VEC2"
    },
    {
      "bufferView": 0,
      "componentType": 5125,
      "count": 12240,
      "type": "SCALAR"
    },
    {
      "bufferView": 2,
      "byteOffset": 51096,
      "componentType": 5126,
      "count": 2323,
      "max": [
        0.9877643585205078,
        10.601966857910156,
        0.987764298915863
      ],
      "min": [
        -0.987764298915863,
        -1.1091747283935547,
        -0.9877647161483765
      ],
      "type": "VEC3"
    },
    {
      "bufferView": 2,
      "byteOffset": 78972,
      "componentType": 5126,
      "count": 2323,
      "max": [
        1.0,
        0.9205025434494019,
        1.0
      ],
      "min": [
        -1.0,
        -1.0,
        -1.0
      ],
      "type": "VEC3"
    },
    {
      "bufferView": 1,
      "byteOffset": 17032,
      "componentType": 5126,
      "count": 2323,
      "max": [
        0.65625,
        1.0
      ],
      "min": [
        0.3437499701976776,
        0.0024945130571722984
      ],
      "type": "VEC2"
    },
    {
      "bufferView": 0,
      "byteOffset": 48960,
      "componentType": 5125,
      "count": 12960,
      "type": "SCALAR"
    },
    {
      "bufferView": 2,
      "byteOffset": 106848,
      "componentType": 5126,
      "count": 1173,
      "max": [
        0.9877642393112183,
        1.0,
        0.987764298915863
      ],
      "min": [
        -0.9877641201019287,
        -1.0,
        -0.9877645969390869
      ],
      "type": "VEC3"
    },
    {
      "bufferView": 2,
      "byteOffset": 120924,
      "componentType": 5126,
      "count": 1173,
      "max": [
        1.0,
        0.9999998807907104,
        1.0
      ],
      "min": [
        -1.0,
        -0.9999998807907104,
        -1.0
      ],
      "type": "VEC3"
    },
    {
      "bufferView": 1,
      "byteOffset": 35616,
      "componentType": 5126,
      "count": 1173,
      "max": [
        0.65625,
        1.0
      ],
      "min": [
        0.3437499701976776,
        -7.450580596923828e-08
      ],
      "type": "VEC2"
    },
    {
      "bufferView": 0,
      "byteOffset": 100800,
      "componentType": 5125,
      "count": 6240,
      "type": "SCALAR"
    },
    {
      "bufferView": 2,
      "byteOffset": 135000,
      "componentType": 5126,
      "count": 1264,
      "max": [
        1.4994475841522217,
        20.581491470336914,
        1.499444603919983
      ],
      "min": [
        -1.4994429349899292,
        -1.0,
        -1.4994456768035889
      ],
      "type": "VEC3"
    },
    {
      "bufferView": 2,
      "byteOffset": 150168,
      "componentType": 5126,
      "count": 1264,
      "max": [
        0.9999995827674866,
        1.0,
        0.9999995827674866
      ],
      "min": [
        -0.9999996423721313,
        -1.0,
        -0.9999995827674866
      ],
      "type": "VEC3"
    },
    {
      "bufferView": 1,
      "byteOffset": 45000,
      "componentType": 5126,
      "count": 1264,
      "max": [
        1.193576693534851,
        0.9636970162391663
      ],
      "min": [
        0.012892112135887146,
        0.006471455097198486
      ],
      "type": "VEC2"
    },
    {
      "bufferView": 0,
      "byteOffset": 125760,
      "componentType": 5125,
      "count": 6960,
      "type": "SCALAR"
    }
  ],
  "asset": {
    "extras": {
      "author": "xonibunnyx (https://sketchfab.com/xonibunnyx)",
      "license": "CC-BY-4.0 (http://creativecommons.org/licenses/by/4.0/)",
      "source": "https://sketchfab.com/3d-models/boba-tea-cup-3693fa4414f64a41b04be4aa70e35448",
      "title": "Boba Tea Cup"
    },
    "generator": "Sketchfab-12.68.0",
    "version": "2.0"
  },
  "bufferViews": [
    {
      "buffer": 0,
      "byteLength": 153600,
      "name": "floatBufferViews",
      "target": 34963
    },
    {
      "buffer": 0,
      "byteLength": 55112,
      "byteOffset": 153600,
      "byteStride": 8,
      "name": "floatBufferViews",
      "target": 34962
    },
    {
      "buffer": 0,
      "byteLength": 165336,
      "byteOffset": 208712,
      "byteStride": 12,
      "name": "floatBufferViews",
      "target": 34962
    }
  ],
  "buffers": [
    {
      "byteLength": 374048,
      "uri": "scene.bin"
    }
  ],
  "extensionsUsed": [
    "KHR_texture_transform"
  ],
  "images": [
    {
      "uri": "textures/MILKTEA_baseColor.jpeg"
    }
  ],
  "materials": [
    {
      "alphaMode": "BLEND",
      "doubleSided": true,
      "name": "Boba_Cup_Plastic_01",
      "pbrMetallicRoughness": {
        "baseColorFactor": [
          0.8149634110163685,
          0.8149634110163685,
          0.8149634110163685,
          0.15947246043310292
        ],
        "metallicFactor": 0.0,
        "roughnessFactor": 0.6
      }
    },
    {
      "doubleSided": true,
      "name": "Boba_Straw_01",
      "pbrMetallicRoughness": {
        "baseColorFactor": [
          0.09975703086897318,
          0.03563572602317597,
          0.1653117630894151,
          1.0
        ],
        "metallicFactor": 0.0,
        "roughnessFactor": 0.6
      }
    },
    {
      "doubleSided": true,
      "name": "MILKTEA",
      "pbrMetallicRoughness": {
        "baseColorTexture": {
          "extensions": {
            "KHR_texture_transform": {
              "rotation": 0.13291920820620984,
              "scale": [
                -2.356578268426836,
                1.5171622291119937
              ]
            }
          },
          "index": 0
        },
        "metallicFactor": 0.0,
        "roughnessFactor": 0.5249207855823618
      }
    }
  ],
  "meshes": [
    {
      "name": "Cup_01_Boba_Cup_Plastic_01_0",
      "primitives": [
        {
          "attributes": {
            "NORMAL": 1,
            "POSITION": 0,
            "TEXCOORD_0": 2
          },
          "indices": 3,
          "material": 0,
          "mode": 4
        }
      ]
    },
    {
      "name": "Lid_01_Boba_Cup_Plastic_01_0",
      "primitives": [
        {
          "attributes": {
            "NORMAL": 5,
            "POSITION": 4,
            "TEXCOORD_0": 6
          },
          "indices": 7,
          "material": 0,
          "mode": 4
        }
      ]
    },
    {
      "name": "straw_01_Boba_Straw_01_0",
      "primitives": [
        {
          "attributes": {
            "NORMAL": 9,
            "POSITION": 8,
            "TEXCOORD_0": 10
          },
          "indices": 11,
          "material": 1,
          "mode": 4
        }
      ]
    },
    {
      "name": "pCylinder1_MILKTEA_0",
      "primitives": [
        {
          "attributes": {
            "NORMAL": 13,
            "POSITION": 12,
            "TEXCOORD_0": 14
          },
          "indices": 15,
          "material": 2,
          "mode": 4
        }
      ]
    }
  ],
  "nodes": [
    {
      "children": [
        1
      ],
      "matrix": [
        1.0,
        0.0,
        0.0,
        0.0,
        0.0,
        2.220446049250313e-16,
        -1.0,
        0.0,
        0.0,
        1.0,
        2.220446049250313e-16,
        0.0,
        0.0,
        0.0,
        0.0,
        1.0
      ],
      "name": "Sketchfab_model"
    },
    {
      "children": [
        2
      ],
      "matrix": [
        1.0,
        0.0,
        0.0,
        0.0,
        0.0,
        0.0,
        1.0,
        0.0,
        0.0,
        -1.0,
        0.0,
        0.0,
        0.0,
        0.0,
        0.0,
        1.0
      ],
      "name": "61ff0730e6f3496586a1cf75b58741f1.fbx"
    },
    {
      "children": [
        3,
        5,
        7,
        9
      ],
      "name": "RootNode"
    },
    {
      "children": [
        4
      ],
      "matrix": [
        0.9980721473693848,
        0.0,
        0.0,
        0.0,
        0.0,
        0.09009983390569687,
        0.0,
        0.0,
        0.0,
        0.0,
        0.9980721473693848,
        0.0,
        2.678544759750366,
        0.1379242241382599,
        0.09682842344045639,
        1.0
      ],
      "name": "Cup_01"
    },
    {
      "mesh": 0,
      "name": "Cup_01_Boba_Cup_Plastic_01_0"
    },
    {
      "children": [
        6
      ],
      "matrix": [
        1.5229301452636719,
        0.0,
        0.0,
        0.0,
        0.0,
        0.09054963290691376,
        0.0,
        0.0,
        0.0,
        0.0,
        1.5229301452636719,
        0.0,
        2.684263229370117,
        4.510371208190918,
        0.10442332178354263,
        1.0
      ],
      "name": "Lid_01"
    },
    {
      "mesh": 1,
      "name": "Lid_01_Boba_Cup_Plastic_01_0"
    },
    {
      "children": [
        8
      ],
      "matrix": [
        0.2569836676120758,
        0.0,
        0.0,
        0.0,
        0.0,
        3.6149425506591797,
        0.0,
        0.0,
        0.0,
        0.0,
        0.2569836676120758,
        0.0,
        2.681814670562744,
        4.024258136749268,
        0.10645008832216263,
        1.0
      ],
      "name": "straw_01"
    },
    {
      "mesh": 2,
      "name": "straw_01_Boba_Straw_01_0"
    },
    {
      "children": [
        10
      ],
      "matrix": [
        0.8123253583908081,
        0.0,
        0.0,
        0.0,
        0.0,
        0.16328535974025726,
        0.0,
        0.0,
        0.0,
        0.0,
        0.8123253583908081,
        0.0,
        2.675670623779297,
        0.2695758640766144,
        0.09055596590042114,
        1.0
      ],
      "name": "pCylinder1"
    },
    {
      "mesh": 3,
      "name": "pCylinder1_MILKTEA_0"
    }
  ],
  "samplers": [
    {
      "magFilter": 9729,
      "minFilter": 9987,
      "wrapS": 33648,
      "wrapT": 33648
    }
  ],
  "scene": 0,
  "scenes": [
    {
      "name": "Sketchfab_Scene",
      "nodes": [
        0
      ]
    }
  ],
  "textures": [
    {
      "sampler": 0,
      "source": 0
    }
  ]
}
